REM MD5 1a7ad9fe9d2c47f843ace13ee6ce4dc9
FILE "Idol Janshi Suchie-Pai Limited (Japan).bin" BINARY
  TRACK 01 MODE2/2352
    INDEX 01 00:00:00
  TRACK 02 AUDIO
    INDEX 00 56:52:45
    INDEX 01 56:54:45
  TRACK 03 AUDIO
    INDEX 00 57:02:41
    INDEX 01 57:04:41
  TRACK 04 AUDIO
    INDEX 00 60:17:10
    INDEX 01 60:19:10
  TRACK 05 AUDIO
    INDEX 00 64:04:15
    INDEX 01 64:06:15
  TRACK 06 AUDIO
    INDEX 00 65:59:59
    INDEX 01 66:01:59
REM LEADOUT 69:32:50
